<svg id="1191a0e6-f23c-44e4-8ceb-18e77d196d3d" data-name="svg8" xmlns="http://www.w3.org/2000/svg" viewBox="0 0 667.86 488.46"><title>logo</title><g id="e3b448fd-1e94-41e3-81da-724666c88fc2" data-name="g1160"><path id="f319a22d-8c19-48e4-b464-f762e48e935d" data-name="path1138" d="M648,368.91l56.75-16.75M612,379.54v43.35l122.18-48.33V207.74L648,195.43V368.91Z" transform="translate(-69.16 -65.65)" style="fill:#fc0"/><path id="73095d7a-c8c7-4ddc-8d30-02c2a7c74d18" data-name="path1140" d="M702,318.77l-18-1m18-80.41v81.44l-18,3.51V236.56Z" transform="translate(-69.16 -65.65)" style="fill:#3c2f00"/><path id="dfc0dacb-4445-4151-9419-00d5a8b65d93" data-name="path1142" d="M540,180V400.8l108-31.89V195.43l-36-5.14V336.34l-36,7V185.14Z" transform="translate(-69.16 -65.65)" style="fill:#fc0"/><path id="f9d62df1-8d2e-4479-b7b9-e61a173ca97d" data-name="path1144" d="M612,336.34l-36-2.81m0-141.19,36-2.06V336.34l-36,7v-151" transform="translate(-69.16 -65.65)" style="fill:#3c2f00"/><path id="93ff58a0-2324-4c27-96ce-5e5b4c81a276" data-name="path1146" d="M504,174.86,540,180V400.8l72-21.26v43.35L504,465.62Z" transform="translate(-69.16 -65.65)" style="fill:#fc0"/><path id="06098d4c-6b2f-49ca-92dd-6e109bb05e50" data-name="path1148" d="M396,313.71l54-5.14v118.8l-54,15.94ZM288,68.57,504,121V465.62L342,529.7V252H450V167.14L288,144Z" transform="translate(-69.16 -65.65)" style="fill:#fc0"/><path id="10926e90-f889-4c64-8508-4ba6ce26642b" data-name="path1150" d="M450,427.37l-54-9.26m0-104.4,54-5.14v118.8l-54,15.94Zm-54-91.8,108,4.63V252H342Z" transform="translate(-69.16 -65.65)" style="fill:#3c2f00"/><path id="5c455c45-075c-42e7-8daf-aa726d13176d" data-name="path1152" d="M126,167.14v59.4l108-4.63V529.7l54,21.36,54-21.36V221.91l108,4.63V167.14L288,144Z" transform="translate(-69.16 -65.65)" style="fill:#fc0"/><path id="efe142c8-e66b-418e-9561-0347afd55f82" data-name="path1154" d="M288,144V551.06" transform="translate(-69.16 -65.65)" style="fill:none"/><path id="4dfcb531-d8df-4aa5-93c8-467cac4346d4" data-name="path1156" d="M288,144V68.57L72,121V465.62L234,529.7V318.86l-54-5.14v129.6l-54-15.94V167.14Z" transform="translate(-69.16 -65.65)" style="fill:#fc0"/><path id="4f1de6a6-173f-49e5-a083-f590a1b202ba" data-name="path1158" d="M126,427.37l54-10.32m0-103.34,54-3.86M126,226.54l108-4.63v96.94l-54-5.14v129.6l-54-15.94Z" transform="translate(-69.16 -65.65)" style="fill:#3c2f00"/></g><g id="ffffb293-8c28-4d70-9668-cd533a1fbbab" data-name="layer5"><path id="a24f164a-6cc4-4839-afaa-f5ca9c6ec698" data-name="path4620-7" d="M288,65.65,69.16,118.74V467.55l167.69,66.33h0L288,554.11l51.16-20.24h0l162-64.08,113.69-45h0L737,376.49V205.27l-91.86-13.13h0l-36-5.14-30.33,3v-7.37l-72-10.29V118.74C353.89,81.68,288,65.65,288,65.65Zm-2.84,6.54v69.34l-162,23.14V429.5l59.69,17.62V316.84l48.31,4.6V525.52L74.84,463.68V123.22Zm5.69,0,210.31,51V463.68L344.84,525.52V254.84h108V164.67l-162-23.14Zm-.72,75,157,22.43v54l-108-4.62v30.2h0V527.78l-49,19.39Zm-4.25,0v400l-49-19.39V316.27q0-48.64,0-97.32l-108,4.63v-54Zm221,31,30.31,4.33V404.6l72-21.25V421L506.84,461.43Zm36,5.13,30.32,4.33V346.81l41.67-8.13V193.56l30.32,4.33v168.9l-30.32,8.95-4.95,1.46-.74.22L542.85,397Zm66.32,9.31V334l-30.33-2.37V194.31Zm41.68,6.13,80.49,11.5V372.63L614.84,418.71v-37l34-10,2-.6h0l53.36-15.75v-5.91l-.27.06L650.84,365.1ZM231.17,224.87v82.34l-54,3.37V414.71l-48.31,9.24V229.26Zm113.67,0,102.32,4.38v19.9H344.84Zm337,9.47v90.53l22.25-4.35V235.29l-2-.09Zm4.25,4.43,13.75.59v77.15l-13.75-.79ZM452.85,305.44l-59.69,5.69v136l59.69-17.62Zm-5.69,6.26v113l-48.31-8.28V316.3Zm-216,1.2v2.83l-17-1.62Zm347.67,23L593.62,337l-14.79,2.89Zm-401.68,84.6v19L138,428Zm221.69.27L439,427.64l-40.19,11.86Z" transform="translate(-69.16 -65.65)"/></g></svg>