<?xml version="1.0" encoding="UTF-8" standalone="no"?>
<svg
   xmlns:dc="http://purl.org/dc/elements/1.1/"
   xmlns:cc="http://creativecommons.org/ns#"
   xmlns:rdf="http://www.w3.org/1999/02/22-rdf-syntax-ns#"
   xmlns:svg="http://www.w3.org/2000/svg"
   xmlns="http://www.w3.org/2000/svg"
   id="svg8"
   version="1.1"
   viewBox="0 0 279.4 215.9"
   height="8.5in"
   width="11in">
  <defs
     id="defs2" />
  <metadata
     id="metadata5">
    <rdf:RDF>
      <cc:Work
         rdf:about="">
        <dc:format>image/svg+xml</dc:format>
        <dc:type
           rdf:resource="http://purl.org/dc/dcmitype/StillImage" />
        <dc:title></dc:title>
      </cc:Work>
    </rdf:RDF>
  </metadata>
  <g
     style="display:inline"
     id="layer4">
    <path
       id="path4674"
       d="m 223.2489,17.849556 c -2.6611,-0.0578 -5.36094,1.420479 -6.27542,4.01427 -1.23167,2.896464 -2.21192,8.48138 -2.0061,9.202369 0.0904,2.052481 0.46118,4.563125 -1.39076,6.026631 -5.97731,4.438031 -16.51878,12.829062 -17.26406,17.290417 -0.68766,1.935893 -1.56014,3.926134 -3.30677,5.168675 -0.72661,0.585452 -1.53495,1.057545 -2.30115,1.5875 1.36852,0.246034 2.86562,0.07396 4.17442,0.382924 0.47426,1.135676 -1.39811,1.621644 -1.87844,2.364198 3.3897,0.48506 6.77962,0.968671 10.16941,1.453139 -0.17566,1.66257 -0.23441,3.201186 1.87989,2.439037 4.61809,-0.126071 9.31258,-0.912828 13.88555,-0.333737 5.4635,-2.164546 9.65168,-6.6705 12.96614,-11.390003 2.59393,-3.815831 4.35872,-8.623318 3.06123,-13.235836 -0.63872,-3.452622 -2.27289,-6.928671 -5.335,-8.844987 -0.98469,-0.580202 -0.21199,-1.688769 0.7214,-1.62729 2.60913,-0.402781 5.26187,-0.124484 7.87291,0.118856 0.0958,-3.588253 -1.04047,-7.635231 -4.37493,-9.511048 -2.54608,-1.839689 -4.82661,-4.4447 -8.12922,-4.867403 -0.81191,-0.163279 -1.64039,-0.252314 -2.4691,-0.237712 z"
       style="color:#000000;font-style:normal;font-variant:normal;font-weight:normal;font-stretch:normal;font-size:medium;line-height:normal;font-family:sans-serif;font-variant-ligatures:normal;font-variant-position:normal;font-variant-caps:normal;font-variant-numeric:normal;font-variant-alternates:normal;font-feature-settings:normal;text-indent:0;text-align:start;text-decoration:none;text-decoration-line:none;text-decoration-style:solid;text-decoration-color:#000000;letter-spacing:normal;word-spacing:normal;text-transform:none;writing-mode:lr-tb;direction:ltr;text-orientation:mixed;dominant-baseline:auto;baseline-shift:baseline;text-anchor:start;white-space:normal;shape-padding:0;clip-rule:nonzero;display:inline;overflow:visible;visibility:visible;opacity:1;isolation:auto;mix-blend-mode:normal;color-interpolation:sRGB;color-interpolation-filters:linearRGB;solid-color:#000000;solid-opacity:1;vector-effect:none;fill:#000000;fill-opacity:1;fill-rule:evenodd;stroke:none;stroke-width:1;stroke-linecap:butt;stroke-linejoin:miter;stroke-miterlimit:4;stroke-dasharray:none;stroke-dashoffset:0;stroke-opacity:1;color-rendering:auto;image-rendering:auto;shape-rendering:auto;text-rendering:auto;enable-background:accumulate" />
    <path
       transform="scale(0.26458333)"
       id="path4676"
       d="m 732.7207,230.11914 c -0.14388,0.0188 -0.24489,-0.0104 -0.39258,0.0117 l 0.44141,-0.008 c -0.0163,-0.001 -0.0326,-0.002 -0.0488,-0.004 z"
       style="color:#000000;font-style:normal;font-variant:normal;font-weight:normal;font-stretch:normal;font-size:medium;line-height:normal;font-family:sans-serif;font-variant-ligatures:normal;font-variant-position:normal;font-variant-caps:normal;font-variant-numeric:normal;font-variant-alternates:normal;font-feature-settings:normal;text-indent:0;text-align:start;text-decoration:none;text-decoration-line:none;text-decoration-style:solid;text-decoration-color:#000000;letter-spacing:normal;word-spacing:normal;text-transform:none;writing-mode:lr-tb;direction:ltr;text-orientation:mixed;dominant-baseline:auto;baseline-shift:baseline;text-anchor:start;white-space:normal;shape-padding:0;clip-rule:nonzero;display:inline;overflow:visible;visibility:visible;opacity:0.36800005;isolation:auto;mix-blend-mode:normal;color-interpolation:sRGB;color-interpolation-filters:linearRGB;solid-color:#000000;solid-opacity:1;vector-effect:none;fill:#000000;fill-opacity:1;fill-rule:evenodd;stroke:none;stroke-width:3.77952766;stroke-linecap:butt;stroke-linejoin:miter;stroke-miterlimit:4;stroke-dasharray:none;stroke-dashoffset:0;stroke-opacity:1;color-rendering:auto;image-rendering:auto;shape-rendering:auto;text-rendering:auto;enable-background:accumulate" />
    <path
       id="path4667"
       d="m 234.81725,24.257628 c -0.7902,-0.591314 -1.57469,-1.190259 -2.35332,-1.796724 0.70591,1.323293 1.27638,2.727088 1.64585,4.182002 0.23321,0.943675 0.13759,1.961316 -0.20887,2.864452 -0.4481,1.140521 -1.55803,1.846743 -2.68793,2.189261 -0.18118,0.06993 -0.73165,0.192405 -0.67513,0.191567 2.40914,-0.294548 4.8444,-0.104676 7.2504,0.123553 -0.0154,-2.020196 -0.44023,-4.066991 -1.39869,-5.856079 -0.39933,-0.722121 -0.90905,-1.398286 -1.57231,-1.898032 z"
       style="color:#000000;font-style:normal;font-variant:normal;font-weight:normal;font-stretch:normal;font-size:medium;line-height:normal;font-family:sans-serif;font-variant-ligatures:normal;font-variant-position:normal;font-variant-caps:normal;font-variant-numeric:normal;font-variant-alternates:normal;font-feature-settings:normal;text-indent:0;text-align:start;text-decoration:none;text-decoration-line:none;text-decoration-style:solid;text-decoration-color:#000000;letter-spacing:normal;word-spacing:normal;text-transform:none;writing-mode:lr-tb;direction:ltr;text-orientation:mixed;dominant-baseline:auto;baseline-shift:baseline;text-anchor:start;white-space:normal;shape-padding:0;clip-rule:nonzero;display:inline;overflow:visible;visibility:visible;opacity:1;isolation:auto;mix-blend-mode:normal;color-interpolation:sRGB;color-interpolation-filters:linearRGB;solid-color:#000000;solid-opacity:1;vector-effect:none;fill:#ffcc00;fill-opacity:1;fill-rule:evenodd;stroke:none;stroke-width:1.02774823;stroke-linecap:butt;stroke-linejoin:miter;stroke-miterlimit:4;stroke-dasharray:none;stroke-dashoffset:0;stroke-opacity:1;color-rendering:auto;image-rendering:auto;shape-rendering:auto;text-rendering:auto;enable-background:accumulate" />
    <path
       id="path4688"
       d="m 223.85817,19.080489 c -1.31809,0.09109 -2.58354,0.568973 -3.65658,1.334047 -1.02605,0.68379 -2.09028,1.432209 -2.60685,2.59837 -1.00681,2.077849 -0.88796,4.742084 0.50357,6.618398 0.9884,0.962308 2.37482,1.330407 3.66427,1.706208 2.05557,0.509669 4.17501,0.884975 6.29981,0.807391 0.70061,0.08828 1.13333,-0.436935 1.41498,-1.006932 0.33886,-0.64842 0.77342,-1.339009 0.7219,-2.093735 -0.45548,-0.433904 -1.46292,0.502486 -1.77638,-0.368777 -0.32844,-0.828386 0.40783,-2.044649 1.37118,-1.742384 0.46018,0.201694 1.02261,0.742177 1.16439,-0.09861 0.24458,-0.978082 0.30057,-2.017393 0.16593,-3.015494 -0.42634,-1.857939 -2.02996,-3.126104 -3.56251,-4.097698 -1.09988,-0.636457 -2.45412,-0.786439 -3.70371,-0.640784 z"
       style="color:#000000;font-style:normal;font-variant:normal;font-weight:normal;font-stretch:normal;font-size:medium;line-height:normal;font-family:sans-serif;font-variant-ligatures:normal;font-variant-position:normal;font-variant-caps:normal;font-variant-numeric:normal;font-variant-alternates:normal;font-feature-settings:normal;text-indent:0;text-align:start;text-decoration:none;text-decoration-line:none;text-decoration-style:solid;text-decoration-color:#000000;letter-spacing:normal;word-spacing:normal;text-transform:none;writing-mode:lr-tb;direction:ltr;text-orientation:mixed;dominant-baseline:auto;baseline-shift:baseline;text-anchor:start;white-space:normal;shape-padding:0;clip-rule:nonzero;display:inline;overflow:visible;visibility:visible;opacity:1;isolation:auto;mix-blend-mode:normal;color-interpolation:sRGB;color-interpolation-filters:linearRGB;solid-color:#000000;solid-opacity:1;vector-effect:none;fill:#ffffff;fill-opacity:1;fill-rule:evenodd;stroke:none;stroke-width:1;stroke-linecap:butt;stroke-linejoin:miter;stroke-miterlimit:4;stroke-dasharray:none;stroke-dashoffset:0;stroke-opacity:1;color-rendering:auto;image-rendering:auto;shape-rendering:auto;text-rendering:auto;enable-background:accumulate" />
    <path
       id="path4636"
       d="m 231.07478,22.432222 c 0.4939,0.76978 0.72108,1.694079 0.6417,2.605077 -0.0219,0.748879 -0.0818,1.512289 -0.37557,2.209418 -0.0647,0.300252 -0.20796,0.872789 -0.5341,0.445426 -0.43472,-0.332031 -1.12228,-0.398547 -1.51151,0.03955 -0.4091,0.24974 -0.28479,0.867714 0.22919,0.807976 0.37186,0.07909 0.98357,-0.4435 1.18037,0.0056 0.0762,0.49353 0.0557,1.00406 -0.15282,1.465078 -0.27493,0.670938 -0.60124,1.34321 -1.08304,1.890191 -0.30717,0.34385 0.27484,-0.149299 0.37877,-0.343334 0.77253,-0.902941 1.66111,-1.807408 1.91427,-3.013504 0.2462,-1.143463 0.34584,-2.316502 0.39236,-3.483841 0.0109,-1.134357 -0.0991,-2.326186 -0.65583,-3.335893 -0.57096,-0.858356 -1.56025,-1.277074 -2.40106,-1.813345 -0.1944,-0.09665 -0.83762,-0.569258 -0.41396,-0.168437 0.82514,0.870388 1.74788,1.665269 2.39123,2.690031 z"
       style="color:#000000;font-style:normal;font-variant:normal;font-weight:normal;font-stretch:normal;font-size:medium;line-height:normal;font-family:sans-serif;font-variant-ligatures:normal;font-variant-position:normal;font-variant-caps:normal;font-variant-numeric:normal;font-variant-alternates:normal;font-feature-settings:normal;text-indent:0;text-align:start;text-decoration:none;text-decoration-line:none;text-decoration-style:solid;text-decoration-color:#000000;letter-spacing:normal;word-spacing:normal;text-transform:none;writing-mode:lr-tb;direction:ltr;text-orientation:mixed;dominant-baseline:auto;baseline-shift:baseline;text-anchor:start;white-space:normal;shape-padding:0;clip-rule:nonzero;display:inline;overflow:visible;visibility:visible;opacity:1;isolation:auto;mix-blend-mode:normal;color-interpolation:sRGB;color-interpolation-filters:linearRGB;solid-color:#000000;solid-opacity:1;vector-effect:none;fill:#ffcc00;fill-opacity:1;fill-rule:evenodd;stroke:none;stroke-width:1;stroke-linecap:butt;stroke-linejoin:miter;stroke-miterlimit:4;stroke-dasharray:none;stroke-dashoffset:0;stroke-opacity:1;color-rendering:auto;image-rendering:auto;shape-rendering:auto;text-rendering:auto;enable-background:accumulate" />
    <path
       transform="scale(0.26458333)"
       id="path4643"
       d="m 732.7207,230.11914 c -0.14388,0.0188 -0.24489,-0.0104 -0.39258,0.0117 l 0.44141,-0.008 c -0.0163,-0.001 -0.0326,-0.002 -0.0488,-0.004 z"
       style="color:#000000;font-style:normal;font-variant:normal;font-weight:normal;font-stretch:normal;font-size:medium;line-height:normal;font-family:sans-serif;font-variant-ligatures:normal;font-variant-position:normal;font-variant-caps:normal;font-variant-numeric:normal;font-variant-alternates:normal;font-feature-settings:normal;text-indent:0;text-align:start;text-decoration:none;text-decoration-line:none;text-decoration-style:solid;text-decoration-color:#000000;letter-spacing:normal;word-spacing:normal;text-transform:none;writing-mode:lr-tb;direction:ltr;text-orientation:mixed;dominant-baseline:auto;baseline-shift:baseline;text-anchor:start;white-space:normal;shape-padding:0;clip-rule:nonzero;display:inline;overflow:visible;visibility:visible;opacity:0.36800005;isolation:auto;mix-blend-mode:normal;color-interpolation:sRGB;color-interpolation-filters:linearRGB;solid-color:#000000;solid-opacity:1;vector-effect:none;fill:#0000ff;fill-opacity:1;fill-rule:evenodd;stroke:none;stroke-width:3.77952766;stroke-linecap:butt;stroke-linejoin:miter;stroke-miterlimit:4;stroke-dasharray:none;stroke-dashoffset:0;stroke-opacity:1;color-rendering:auto;image-rendering:auto;shape-rendering:auto;text-rendering:auto;enable-background:accumulate" />
    <path
       transform="scale(0.26458333)"
       id="path4641"
       d="m 831.81431,148.95757 c -12.76175,2.84414 -22.71309,9.21259 -38.0903,25.91999 -15.37721,16.7074 -36.32331,52.5636 -23.83729,70.34118 v 9.24219 l 35.89062,-2.05274 c 7.07577,-0.80792 14.06623,-0.33941 20.99414,0.62891 4.97055,-0.89333 4.87762,5.19903 34.3895,-22.13695 17.7083,-13.91505 30.55326,-47.91075 28.53697,-57.0517 -0.7912,-17.07133 -7.91724,-38.03281 -21.50908,-45.24974 -4.65434,12.84557 -23.62447,17.76123 -36.37456,20.35886 z"
       style="color:#000000;font-style:normal;font-variant:normal;font-weight:normal;font-stretch:normal;font-size:medium;line-height:normal;font-family:sans-serif;font-variant-ligatures:normal;font-variant-position:normal;font-variant-caps:normal;font-variant-numeric:normal;font-variant-alternates:normal;font-feature-settings:normal;text-indent:0;text-align:start;text-decoration:none;text-decoration-line:none;text-decoration-style:solid;text-decoration-color:#000000;letter-spacing:normal;word-spacing:normal;text-transform:none;writing-mode:lr-tb;direction:ltr;text-orientation:mixed;dominant-baseline:auto;baseline-shift:baseline;text-anchor:start;white-space:normal;shape-padding:0;clip-rule:nonzero;display:inline;overflow:visible;visibility:visible;opacity:1;isolation:auto;mix-blend-mode:normal;color-interpolation:sRGB;color-interpolation-filters:linearRGB;solid-color:#000000;solid-opacity:1;vector-effect:none;fill:#ffffff;fill-opacity:1;fill-rule:evenodd;stroke:none;stroke-width:3.77952766;stroke-linecap:butt;stroke-linejoin:miter;stroke-miterlimit:4;stroke-dasharray:none;stroke-dashoffset:0;stroke-opacity:1;color-rendering:auto;image-rendering:auto;shape-rendering:auto;text-rendering:auto;enable-background:accumulate" />
    <path
       id="path4691"
       d="m 218.83654,23.34866 c 3.40905,-0.353835 5.05402,-0.309949 6.79282,0.248275 1.41548,0.454423 1.27774,1.460426 1.27774,1.460426 1.34045,-1.126505 0.65376,-2.798587 0.29754,-4.351957 0,0 -0.30932,1.160399 -1.01112,1.602528 -2.6259,0.06849 -7.35698,1.040728 -7.35698,1.040728 z"
       style="fill:#000000;fill-opacity:1;fill-rule:evenodd;stroke:#000000;stroke-width:0;stroke-linecap:butt;stroke-linejoin:miter;stroke-miterlimit:4;stroke-dasharray:none;stroke-opacity:1" />
  </g>
  <g
     id="g1160"
     style="display:inline">
    <path
       id="path1138"
       style="display:inline;opacity:1;vector-effect:none;fill:#ffcc00;fill-opacity:1;fill-rule:evenodd;stroke:none;stroke-width:2.0065999;stroke-linecap:round;stroke-linejoin:miter;stroke-miterlimit:4;stroke-dasharray:none;stroke-dashoffset:0;stroke-opacity:1"
       d="m 228.6,130.14381 20.01847,-5.91036 M 215.9,133.89343 v 15.2937 l 43.10088,-17.05006 V 73.285842 L 228.6,68.942858 v 61.200952 z" />
    <path
       id="path1140"
       style="display:inline;opacity:1;vector-effect:none;fill:#3c2f00;fill-opacity:1;fill-rule:evenodd;stroke:none;stroke-width:1.5;stroke-linecap:butt;stroke-linejoin:miter;stroke-miterlimit:4;stroke-dasharray:none;stroke-dashoffset:0;stroke-opacity:1"
       d="M 247.64999,112.45548 241.3,112.09298 m 6.35,-28.368439 v 28.730939 l -6.35,1.23976 V 83.452605 Z" />
    <path
       style="display:inline;opacity:1;vector-effect:none;fill:#ffcc00;fill-opacity:1;fill-rule:evenodd;stroke:none;stroke-width:2;stroke-linecap:butt;stroke-linejoin:miter;stroke-miterlimit:4;stroke-dasharray:none;stroke-dashoffset:0;stroke-opacity:1"
       d="m 190.5,63.5 v 77.89267 l 38.1,-11.24886 V 68.942858 l -12.7,-1.814285 v 51.525717 l -12.7,2.47952 V 65.314285 Z"
       id="path1142" />
    <path
       id="path1144"
       style="display:inline;opacity:1;vector-effect:none;fill:#3c2f00;fill-opacity:1;fill-rule:evenodd;stroke:none;stroke-width:1.5;stroke-linecap:butt;stroke-linejoin:miter;stroke-miterlimit:4;stroke-dasharray:none;stroke-dashoffset:0;stroke-opacity:1"
       d="m 215.9,118.65429 -12.7,-0.99202 m 0,-49.807985 12.7,-0.725712 v 51.525717 l -12.7,2.47952 V 67.854285" />
    <path
       style="display:inline;opacity:1;vector-effect:none;fill:#ffcc00;fill-opacity:1;fill-rule:evenodd;stroke:none;stroke-width:2.0065999;stroke-linecap:butt;stroke-linejoin:miter;stroke-miterlimit:4;stroke-dasharray:none;stroke-dashoffset:0;stroke-opacity:1"
       d="M 177.8,61.685715 190.5,63.5 v 77.89267 l 25.4,-7.49924 v 15.2937 l -38.1,15.07178 z"
       id="path1146" />
    <path
       id="path1148"
       style="display:inline;opacity:1;vector-effect:none;fill:#ffcc00;fill-opacity:1;fill-rule:evenodd;stroke:none;stroke-width:2;stroke-linecap:butt;stroke-linejoin:bevel;stroke-miterlimit:4;stroke-dasharray:none;stroke-dashoffset:0;stroke-opacity:1"
       d="m 139.70001,110.67058 19.04999,-1.8147 -1e-5,41.91084 -19.04998,5.62442 z M 101.6,24.191214 177.8,42.67944 v 121.57947 l -57.15,22.60767 V 88.9 h 38.1 V 58.964285 L 101.6,50.8 Z" />
    <path
       id="path1150"
       style="display:inline;opacity:1;vector-effect:none;fill:#3c2f00;fill-opacity:1;fill-rule:evenodd;stroke:none;stroke-width:1.5;stroke-linecap:butt;stroke-linejoin:miter;stroke-miterlimit:4;stroke-dasharray:none;stroke-dashoffset:0;stroke-opacity:1"
       d="m 158.75,150.76672 -19.05,-3.26558 m 1e-5,-36.83056 19.04999,-1.8147 v 41.91084 l -19.04999,5.62442 z M 120.65,78.285808 l 38.1,1.63162 V 88.9 h -38.1 z" />
    <path
       style="display:inline;opacity:1;vector-effect:none;fill:#ffcc00;fill-opacity:1;fill-rule:evenodd;stroke:none;stroke-width:2;stroke-linecap:butt;stroke-linejoin:miter;stroke-miterlimit:4;stroke-dasharray:none;stroke-dashoffset:0;stroke-opacity:1"
       d="m 44.449999,58.964285 v 20.955 L 82.55,78.286425 V 186.86658 l 19.05,7.53589 19.05,-7.53589 V 78.285808 l 38.1,1.63162 V 58.964285 L 101.6,50.800008 Z"
       id="path1152" />
    <path
       style="display:inline;opacity:1;vector-effect:none;fill:none;fill-opacity:1;fill-rule:evenodd;stroke:none;stroke-width:1.5;stroke-linecap:butt;stroke-linejoin:miter;stroke-miterlimit:4;stroke-dasharray:none;stroke-dashoffset:0;stroke-opacity:1"
       d="M 101.6,50.800008 V 194.40247"
       id="path1154" />
    <path
       style="display:inline;opacity:1;vector-effect:none;fill:#ffcc00;fill-opacity:1;fill-rule:evenodd;stroke:none;stroke-width:2.0065999;stroke-linecap:butt;stroke-linejoin:bevel;stroke-miterlimit:4;stroke-dasharray:none;stroke-dashoffset:0;stroke-opacity:1"
       d="M 101.6,50.800008 V 24.191214 L 25.4,42.67944 v 121.57947 l 57.15,22.60767 V 112.48571 L 63.5,110.67143 v 45.71971 L 44.449999,150.76672 V 58.964285 Z"
       id="path1156" />
    <path
       id="path1158"
       style="display:inline;opacity:1;vector-effect:none;fill:#3c2f00;fill-opacity:1;fill-rule:evenodd;stroke:none;stroke-width:2;stroke-linecap:butt;stroke-linejoin:miter;stroke-miterlimit:4;stroke-dasharray:none;stroke-dashoffset:0;stroke-opacity:1"
       d="M 44.449999,150.76672 63.5,147.1275 m 0,-36.45607 19.05,-1.36072 M 44.449999,79.919285 82.55,78.286425 V 112.48571 L 63.5,110.67143 v 45.71971 l -19.050011,-5.62443 z" />
  </g>
  <g
     id="g305"
     style="display:none">
    <path
       id="path283"
       style="display:inline;opacity:1;vector-effect:none;fill:#000000;fill-opacity:1;fill-rule:evenodd;stroke:none;stroke-width:2.0065999;stroke-linecap:round;stroke-linejoin:miter;stroke-miterlimit:4;stroke-dasharray:none;stroke-dashoffset:0;stroke-opacity:1"
       d="m 228.6,130.14381 20.01847,-5.91036 M 215.9,133.89343 v 15.2937 l 43.10088,-17.05006 V 73.285842 L 228.6,68.942858 v 61.200952 z" />
    <path
       id="path285"
       style="display:inline;opacity:1;vector-effect:none;fill:#000000;fill-opacity:1;fill-rule:evenodd;stroke:none;stroke-width:1.5;stroke-linecap:butt;stroke-linejoin:miter;stroke-miterlimit:4;stroke-dasharray:none;stroke-dashoffset:0;stroke-opacity:1"
       d="M 247.64999,112.45548 241.3,112.09298 m 6.35,-28.368439 v 28.730939 l -6.35,1.23976 V 83.452605 Z" />
    <path
       style="display:inline;opacity:1;vector-effect:none;fill:#000000;fill-opacity:1;fill-rule:evenodd;stroke:none;stroke-width:2;stroke-linecap:butt;stroke-linejoin:miter;stroke-miterlimit:4;stroke-dasharray:none;stroke-dashoffset:0;stroke-opacity:1"
       d="m 190.5,63.5 v 77.89267 l 38.1,-11.24886 V 68.942858 l -12.7,-1.814285 v 51.525717 l -12.7,2.47952 V 65.314285 Z"
       id="path287" />
    <path
       id="path289"
       style="display:inline;opacity:1;vector-effect:none;fill:#000000;fill-opacity:1;fill-rule:evenodd;stroke:none;stroke-width:1.5;stroke-linecap:butt;stroke-linejoin:miter;stroke-miterlimit:4;stroke-dasharray:none;stroke-dashoffset:0;stroke-opacity:1"
       d="m 215.9,118.65429 -12.7,-0.99202 m 0,-49.807985 12.7,-0.725712 v 51.525717 l -12.7,2.47952 V 67.854285" />
    <path
       style="display:inline;opacity:1;vector-effect:none;fill:#000000;fill-opacity:1;fill-rule:evenodd;stroke:none;stroke-width:2.0065999;stroke-linecap:butt;stroke-linejoin:miter;stroke-miterlimit:4;stroke-dasharray:none;stroke-dashoffset:0;stroke-opacity:1"
       d="M 177.8,61.685715 190.5,63.5 v 77.89267 l 25.4,-7.49924 v 15.2937 l -38.1,15.07178 z"
       id="path291" />
    <path
       id="path293"
       style="display:inline;opacity:1;vector-effect:none;fill:#000000;fill-opacity:1;fill-rule:evenodd;stroke:none;stroke-width:2;stroke-linecap:butt;stroke-linejoin:bevel;stroke-miterlimit:4;stroke-dasharray:none;stroke-dashoffset:0;stroke-opacity:1"
       d="m 139.70001,110.67058 19.04999,-1.8147 -1e-5,41.91084 -19.04998,5.62442 z M 101.6,24.191214 177.8,42.67944 v 121.57947 l -57.15,22.60767 V 88.9 h 38.1 V 58.964285 L 101.6,50.8 Z" />
    <path
       id="path295"
       style="display:inline;opacity:1;vector-effect:none;fill:#000000;fill-opacity:1;fill-rule:evenodd;stroke:none;stroke-width:1.5;stroke-linecap:butt;stroke-linejoin:miter;stroke-miterlimit:4;stroke-dasharray:none;stroke-dashoffset:0;stroke-opacity:1"
       d="m 158.75,150.76672 -19.05,-3.26558 m 1e-5,-36.83056 19.04999,-1.8147 v 41.91084 l -19.04999,5.62442 z M 120.65,78.285808 l 38.1,1.63162 V 88.9 h -38.1 z" />
    <path
       style="display:inline;opacity:1;vector-effect:none;fill:#000000;fill-opacity:1;fill-rule:evenodd;stroke:none;stroke-width:2;stroke-linecap:butt;stroke-linejoin:miter;stroke-miterlimit:4;stroke-dasharray:none;stroke-dashoffset:0;stroke-opacity:1"
       d="m 44.449999,58.964285 v 20.955 L 82.55,78.286425 V 186.86658 l 19.05,7.53589 19.05,-7.53589 V 78.285808 l 38.1,1.63162 V 58.964285 L 101.6,50.800008 Z"
       id="path297" />
    <path
       style="display:inline;opacity:1;vector-effect:none;fill:none;fill-opacity:1;fill-rule:evenodd;stroke:none;stroke-width:1.5;stroke-linecap:butt;stroke-linejoin:miter;stroke-miterlimit:4;stroke-dasharray:none;stroke-dashoffset:0;stroke-opacity:1"
       d="M 101.6,50.800008 V 194.40247"
       id="path299" />
    <path
       style="display:inline;opacity:1;vector-effect:none;fill:#000000;fill-opacity:1;fill-rule:evenodd;stroke:none;stroke-width:2.0065999;stroke-linecap:butt;stroke-linejoin:bevel;stroke-miterlimit:4;stroke-dasharray:none;stroke-dashoffset:0;stroke-opacity:1"
       d="M 101.6,50.800008 V 24.191214 L 25.4,42.67944 v 121.57947 l 57.15,22.60767 V 112.48571 L 63.5,110.67143 v 45.71971 L 44.449999,150.76672 V 58.964285 Z"
       id="path301" />
    <path
       id="path303"
       style="display:inline;opacity:1;vector-effect:none;fill:#000000;fill-opacity:1;fill-rule:evenodd;stroke:none;stroke-width:2;stroke-linecap:butt;stroke-linejoin:miter;stroke-miterlimit:4;stroke-dasharray:none;stroke-dashoffset:0;stroke-opacity:1"
       d="M 44.449999,150.76672 63.5,147.1275 m 0,-36.45607 19.05,-1.36072 M 44.449999,79.919285 82.55,78.286425 V 112.48571 L 63.5,110.67143 v 45.71971 l -19.050011,-5.62443 z" />
  </g>
  <g
     style="display:none"
     id="g1184">
    <path
       d="m 228.6,130.14381 20.01847,-5.91036 M 215.9,133.89343 v 15.2937 l 43.10088,-17.05006 V 73.285842 L 228.6,68.942858 v 61.200952 z"
       style="display:inline;opacity:1;vector-effect:none;fill:#ffffff;fill-opacity:1;fill-rule:evenodd;stroke:none;stroke-width:2.0065999;stroke-linecap:round;stroke-linejoin:miter;stroke-miterlimit:4;stroke-dasharray:none;stroke-dashoffset:0;stroke-opacity:1"
       id="path1162" />
    <path
       d="M 247.64999,112.45548 241.3,112.09298 m 6.35,-28.368439 v 28.730939 l -6.35,1.23976 V 83.452605 Z"
       style="display:inline;opacity:1;vector-effect:none;fill:#ffffff;fill-opacity:1;fill-rule:evenodd;stroke:none;stroke-width:1.5;stroke-linecap:butt;stroke-linejoin:miter;stroke-miterlimit:4;stroke-dasharray:none;stroke-dashoffset:0;stroke-opacity:1"
       id="path1164" />
    <path
       id="path1166"
       d="m 190.5,63.5 v 77.89267 l 38.1,-11.24886 V 68.942858 l -12.7,-1.814285 v 51.525717 l -12.7,2.47952 V 65.314285 Z"
       style="display:inline;opacity:1;vector-effect:none;fill:#ffffff;fill-opacity:1;fill-rule:evenodd;stroke:none;stroke-width:2;stroke-linecap:butt;stroke-linejoin:miter;stroke-miterlimit:4;stroke-dasharray:none;stroke-dashoffset:0;stroke-opacity:1" />
    <path
       d="m 215.9,118.65429 -12.7,-0.99202 m 0,-49.807985 12.7,-0.725712 v 51.525717 l -12.7,2.47952 V 67.854285"
       style="display:inline;opacity:1;vector-effect:none;fill:#ffffff;fill-opacity:1;fill-rule:evenodd;stroke:none;stroke-width:1.5;stroke-linecap:butt;stroke-linejoin:miter;stroke-miterlimit:4;stroke-dasharray:none;stroke-dashoffset:0;stroke-opacity:1"
       id="path1168" />
    <path
       id="path1170"
       d="M 177.8,61.685715 190.5,63.5 v 77.89267 l 25.4,-7.49924 v 15.2937 l -38.1,15.07178 z"
       style="display:inline;opacity:1;vector-effect:none;fill:#ffffff;fill-opacity:1;fill-rule:evenodd;stroke:none;stroke-width:2.0065999;stroke-linecap:butt;stroke-linejoin:miter;stroke-miterlimit:4;stroke-dasharray:none;stroke-dashoffset:0;stroke-opacity:1" />
    <path
       d="m 139.70001,110.67058 19.04999,-1.8147 -1e-5,41.91084 -19.04998,5.62442 z M 101.6,24.191214 177.8,42.67944 v 121.57947 l -57.15,22.60767 V 88.9 h 38.1 V 58.964285 L 101.6,50.8 Z"
       style="display:inline;opacity:1;vector-effect:none;fill:#ffffff;fill-opacity:1;fill-rule:evenodd;stroke:none;stroke-width:2;stroke-linecap:butt;stroke-linejoin:bevel;stroke-miterlimit:4;stroke-dasharray:none;stroke-dashoffset:0;stroke-opacity:1"
       id="path1172" />
    <path
       d="m 158.75,150.76672 -19.05,-3.26558 m 1e-5,-36.83056 19.04999,-1.8147 v 41.91084 l -19.04999,5.62442 z M 120.65,78.285808 l 38.1,1.63162 V 88.9 h -38.1 z"
       style="display:inline;opacity:1;vector-effect:none;fill:#ffffff;fill-opacity:1;fill-rule:evenodd;stroke:none;stroke-width:1.5;stroke-linecap:butt;stroke-linejoin:miter;stroke-miterlimit:4;stroke-dasharray:none;stroke-dashoffset:0;stroke-opacity:1"
       id="path1174" />
    <path
       id="path1176"
       d="m 44.449999,58.964285 v 20.955 L 82.55,78.286425 V 186.86658 l 19.05,7.53589 19.05,-7.53589 V 78.285808 l 38.1,1.63162 V 58.964285 L 101.6,50.800008 Z"
       style="display:inline;opacity:1;vector-effect:none;fill:#ffffff;fill-opacity:1;fill-rule:evenodd;stroke:none;stroke-width:2;stroke-linecap:butt;stroke-linejoin:miter;stroke-miterlimit:4;stroke-dasharray:none;stroke-dashoffset:0;stroke-opacity:1" />
    <path
       id="path1178"
       d="M 101.6,50.800008 V 194.40247"
       style="display:inline;opacity:1;vector-effect:none;fill:none;fill-opacity:1;fill-rule:evenodd;stroke:none;stroke-width:1.5;stroke-linecap:butt;stroke-linejoin:miter;stroke-miterlimit:4;stroke-dasharray:none;stroke-dashoffset:0;stroke-opacity:1" />
    <path
       id="path1180"
       d="M 101.6,50.800008 V 24.191214 L 25.4,42.67944 v 121.57947 l 57.15,22.60767 V 112.48571 L 63.5,110.67143 v 45.71971 L 44.449999,150.76672 V 58.964285 Z"
       style="display:inline;opacity:1;vector-effect:none;fill:#ffffff;fill-opacity:1;fill-rule:evenodd;stroke:none;stroke-width:2.0065999;stroke-linecap:butt;stroke-linejoin:bevel;stroke-miterlimit:4;stroke-dasharray:none;stroke-dashoffset:0;stroke-opacity:1" />
    <path
       d="M 44.449999,150.76672 63.5,147.1275 m 0,-36.45607 19.05,-1.36072 M 44.449999,79.919285 82.55,78.286425 V 112.48571 L 63.5,110.67143 v 45.71971 l -19.050011,-5.62443 z"
       style="display:inline;opacity:1;vector-effect:none;fill:#ffffff;fill-opacity:1;fill-rule:evenodd;stroke:none;stroke-width:2;stroke-linecap:butt;stroke-linejoin:miter;stroke-miterlimit:4;stroke-dasharray:none;stroke-dashoffset:0;stroke-opacity:1"
       id="path1182" />
  </g>
  <g
     style="display:inline"
     id="layer5">
    <path
       id="path4620-7"
       d="m 101.60052,23.15931 c 0,0 -51.881994,12.587557 -77.204077,18.731156 V 164.94135 l 59.156079,23.40064 v -0.003 l 18.046958,7.13952 18.04696,-7.1391 v 0.003 l 57.15052,-22.60741 40.10556,-15.8657 v -5.3e-4 L 260.00377,132.8186 V 72.416252 l -32.4063,-4.631243 v 0.0047 l -12.69689,-1.814875 -10.70116,1.07125 v -2.598806 c -8.39128,-1.196644 -17.76353,-2.542344 -25.3969,-3.631811 V 41.890466 C 124.84417,28.813837 101.60052,23.15931 101.60052,23.15931 Z m -1.00304,2.307353 V 49.92977 l -57.150003,8.163843 v 93.423757 l 21.056595,6.21719 V 111.7756 l 17.042887,1.62265 v 71.9925 L 26.402522,163.57606 V 43.468666 Z m 2.00608,0 74.1934,18.002003 v 17.060455 1.15652 101.890419 l -55.14444,21.81469 V 89.902522 h 38.10155 V 58.093613 L 102.60356,49.92977 Z m -0.25374,26.453165 55.3961,7.914246 v 19.039149 l -38.09534,-1.63091 v 10.65413 h -0.004 v 98.292707 l -17.29662,6.84041 z m -1.50016,5.29e-4 V 193.02957 l -17.297138,-6.84144 v -74.61406 c -0.0031,-11.44043 -0.0016,-22.888528 -0.0016,-34.331757 l -38.097919,1.632461 v -19.0407 z m 77.95286,10.923363 10.6934,1.527556 v 78.363174 l 25.40052,-7.49825 v 13.26947 l -36.09392,14.27769 z m 12.70155,1.809191 10.69495,1.528591 v 56.166078 l 14.70143,-2.86907 V 68.283169 l 10.69702,1.52704 v 59.584481 l -10.69495,3.15588 -1.74511,0.51521 -0.26097,0.077 -23.39237,6.90604 z m 23.39651,3.283522 v 49.887907 l -10.70116,-0.83612 V 68.548271 Z m 14.70297,2.163175 28.39465,4.0566 v 57.298832 l -41.09568,16.25585 v -13.06845 l 11.98221,-3.53674 0.71882,-0.21135 v -0.002 l 18.82469,-5.55729 v -2.08514 c -0.0316,0.008 -0.0615,0.0106 -0.0941,0.0212 L 229.6035,128.8005 Z M 81.550578,79.330053 v 29.048867 l -19.054651,1.1896 v 36.7316 l -17.042887,3.2582 V 80.877233 Z m 40.099882,0 36.09546,1.545124 v 7.021277 h -36.09546 z m 118.90023,3.339846 v 31.935511 l 7.84965,-1.53324 V 83.005787 l -0.71882,-0.03101 z m 1.50017,1.564245 4.84931,0.209291 v 27.218485 l -4.84931,-0.27699 z m -82.29679,23.517946 -21.0566,2.00556 v 0.91209 47.06483 l 21.0566,-6.21719 z m -2.00815,2.20865 v 39.87301 l -17.04288,-2.92127 V 111.58389 Z M 81.550578,110.385 v 0.99839 l -5.988782,-0.57051 z m 122.648842,8.10752 5.21622,0.40876 -5.21622,1.01854 z M 62.495927,148.3372 v 6.71173 l -13.804842,-4.0752 z m 78.207113,0.0966 14.17639,2.42982 -14.17639,4.18527 z"
       style="color:#000000;font-style:normal;font-variant:normal;font-weight:normal;font-stretch:normal;font-size:medium;line-height:normal;font-family:sans-serif;font-variant-ligatures:normal;font-variant-position:normal;font-variant-caps:normal;font-variant-numeric:normal;font-variant-alternates:normal;font-feature-settings:normal;text-indent:0;text-align:start;text-decoration:none;text-decoration-line:none;text-decoration-style:solid;text-decoration-color:#000000;letter-spacing:normal;word-spacing:normal;text-transform:none;writing-mode:lr-tb;direction:ltr;text-orientation:mixed;dominant-baseline:auto;baseline-shift:baseline;text-anchor:start;white-space:normal;shape-padding:0;clip-rule:nonzero;display:inline;overflow:visible;visibility:visible;opacity:1;isolation:auto;mix-blend-mode:normal;color-interpolation:sRGB;color-interpolation-filters:linearRGB;solid-color:#000000;solid-opacity:1;vector-effect:none;fill:#000000;fill-opacity:1;fill-rule:evenodd;stroke:none;stroke-width:2.0065999;stroke-linecap:round;stroke-linejoin:miter;stroke-miterlimit:4;stroke-dasharray:none;stroke-dashoffset:0;stroke-opacity:1;color-rendering:auto;image-rendering:auto;shape-rendering:auto;text-rendering:auto;enable-background:accumulate" />
  </g>
  <g
     style="display:inline"
     id="layer7">
    <path
       id="path4590"
       d="m 223.2303,17.378785 c -1.99105,0.03748 -3.96486,0.652539 -5.42758,2.179712 l -0.0253,0.02739 -0.0217,0.02946 c -2.55297,3.595369 -3.26183,8.134352 -3.27318,12.357385 v 0.04289 l 0.006,0.04082 c 0.29259,1.75252 0.11923,3.547295 -1.21077,4.672068 -7.22996,4.427524 -14.03601,10.319731 -17.74414,18.1777 l -0.0233,0.04909 -0.0119,0.05064 c -0.59925,2.561916 -2.39414,4.55462 -4.78524,5.672014 l -1.68931,0.789101 1.85725,0.161745 c 0.97061,0.0844 1.94188,0.169849 2.91249,0.254249 l 0.0584,0.0036 0.0584,-0.0078 c 0.50227,-0.07516 0.61998,0.01881 0.60358,-0.0098 -0.009,0.04168 -0.0188,0.09417 -0.0641,0.181901 -0.22856,0.442061 -0.98711,1.157076 -1.46916,1.380794 l -1.53118,0.709002 11.24996,1.607134 v 2.634983 l 10.59419,-0.605647 h 0.0155 c 1.82156,-0.207989 3.64582,-0.0994 5.48442,0.167947 l 0.12299,0.01757 0.11679,-0.04083 c 3.58825,-1.275747 6.55027,-3.883125 9.1488,-6.486424 l 0.008,-0.0057 0.006,-0.0083 c 3.86144,-4.1691 8.00814,-9.591253 7.83516,-14.828733 -0.17298,-5.23748 -1.73449,-10.135324 -5.85073,-12.760792 l 0.0429,0.02946 c -0.41412,-0.329346 -0.5844,-0.592119 -0.60926,-0.672312 -0.0249,-0.08019 -0.0571,0.0043 0.0506,-0.07803 0.21537,-0.164624 1.12429,-0.393279 2.21485,-0.458885 2.18111,-0.131218 5.17157,0.122348 6.32829,0.248047 l 0.52504,0.05684 0.0274,-0.527616 c 0.15144,-2.84856 -0.76346,-6.938437 -3.36106,-8.890321 v -0.0021 c -3.65837,-2.738048 -4.98485,-3.994674 -6.4022,-4.865343 l -0.0258,-0.0155 -0.0269,-0.01395 c -1.69393,-0.776918 -3.72179,-1.300969 -5.71283,-1.263489 z m 0.0196,0.999939 c 0.4474,-0.0084 0.90081,0.01559 1.35392,0.06718 0.45311,0.05159 0.90612,0.130831 1.35186,0.233577 0.44573,0.102747 0.8842,0.229091 1.30948,0.374138 0.42527,0.145047 0.83715,0.308818 1.22886,0.487309 0.63966,0.39445 1.29864,0.907202 2.25619,1.664497 0.95756,0.757296 2.21351,1.759385 4.04834,3.132626 0.2507,0.188382 0.48432,0.407552 0.70073,0.652156 0.21641,0.244605 0.41602,0.51467 0.59893,0.804086 0.36582,0.578831 0.66513,1.235857 0.90175,1.925464 0.23663,0.689605 0.41018,1.411713 0.524,2.120799 0.11382,0.709089 0.16796,1.40498 0.16537,2.042253 -0.6859,-0.0678 -1.63169,-0.156512 -2.66702,-0.212389 -1.03533,-0.05588 -2.16007,-0.07882 -3.20394,-0.01601 -0.5775,0.03474 -1.10692,0.0778 -1.57252,0.173633 -0.2328,0.04792 -0.44969,0.10873 -0.64854,0.188618 -0.19884,0.07989 -0.37961,0.178793 -0.54053,0.301792 -0.16092,0.122997 -0.29407,0.307896 -0.37001,0.515731 -0.0759,0.207836 -0.0946,0.438529 -0.0284,0.652156 0.0662,0.213627 0.17888,0.40582 0.33642,0.593246 0.15754,0.187423 0.35957,0.369946 0.60461,0.564822 l 0.0217,0.01757 0.0217,0.01394 c 0.45929,0.292954 0.87906,0.623207 1.26297,0.985469 0.38392,0.362265 0.73185,0.756383 1.04748,1.176674 0.31564,0.420291 0.59873,0.866733 0.85318,1.333767 0.25446,0.467037 0.4802,0.954778 0.68058,1.457278 0.20038,0.502496 0.37524,1.019995 0.52865,1.546674 0.15341,0.52668 0.28541,1.062392 0.39894,1.60197 0.22708,1.079153 0.36112,2.215603 0.41962,3.28275 0.0386,0.703959 -0.008,1.352728 -0.12248,2.036822 -0.1144,0.684093 -0.27645,1.357688 -0.47955,2.02003 -0.20311,0.662342 -0.44722,1.31373 -0.72657,1.953369 -0.27936,0.63964 -0.59373,1.267624 -0.9369,1.883608 -0.34317,0.615982 -0.71548,1.219883 -1.11001,1.811258 -0.39453,0.591376 -0.81144,1.169996 -1.24488,1.73581 -0.86689,1.131631 -1.79925,2.211273 -2.74712,3.234946 -0.002,0.0021 -0.004,0.0037 -0.006,0.0057 -0.63671,0.637548 -1.29233,1.269831 -1.96939,1.877922 -0.67706,0.608092 -1.37555,1.191938 -2.09806,1.733744 -0.72251,0.541808 -1.46918,1.041323 -2.24224,1.480013 -0.77307,0.438689 -1.57269,0.816954 -2.40141,1.115695 -0.9165,-0.128101 -1.83709,-0.223216 -2.76262,-0.259416 -0.92553,-0.0362 -1.85601,-0.01386 -2.79208,0.09302 l -9.49606,0.54312 v -2.445338 l -9.44335,-1.349272 c 0.1955,-0.170929 0.41124,-0.321117 0.60565,-0.481108 0.19441,-0.159991 0.36758,-0.329946 0.47646,-0.540536 0.0975,-0.188494 0.17092,-0.384974 0.18913,-0.607713 0.009,-0.111371 -5.2e-4,-0.234463 -0.0346,-0.355018 -0.0341,-0.120555 -0.0927,-0.238194 -0.18035,-0.337963 -0.0876,-0.09977 -0.18596,-0.175921 -0.29507,-0.232545 -0.10912,-0.05662 -0.22886,-0.09383 -0.35864,-0.115239 -0.22949,-0.03785 -0.50216,-0.01365 -0.79271,0.02429 0.004,2.64e-4 0.009,5.29e-4 0.0129,0.0011 l -0.11679,0.0021 c 0.0391,-0.0058 0.0658,0.0019 0.10387,-0.0031 -0.53799,-0.04679 -1.07587,-0.09481 -1.61386,-0.141594 0.50438,-0.324125 0.9852,-0.680077 1.43144,-1.069184 0.44624,-0.389107 0.85794,-0.811533 1.22422,-1.268656 0.36627,-0.457123 0.68687,-0.948738 0.95136,-1.476912 0.26449,-0.528177 0.47304,-1.092724 0.61392,-1.694987 l -0.0357,0.09973 c 0.44979,-0.953161 0.94763,-1.877755 1.48828,-2.774508 0.54065,-0.896752 1.12422,-1.76566 1.74563,-2.607593 0.62141,-0.841933 1.28092,-1.657143 1.97301,-2.445845 0.69208,-0.788702 1.41671,-1.551176 2.16937,-2.288233 0.75266,-0.737058 1.53315,-1.448268 2.33629,-2.135269 0.80315,-0.687001 1.62918,-1.349457 2.47272,-1.987992 0.84355,-0.638535 1.70481,-1.253193 2.57865,-1.844849 0.87385,-0.591654 1.76005,-1.160508 2.65411,-1.706873 l 0.0331,-0.01963 0.0295,-0.02326 c 0.21287,-0.179261 0.40178,-0.371266 0.56895,-0.573609 0.16717,-0.20234 0.31274,-0.415084 0.43822,-0.636135 0.25097,-0.442106 0.42241,-0.917443 0.53072,-1.408184 0.10831,-0.490741 0.15364,-0.996762 0.15141,-1.501201 -0.002,-0.504439 -0.0521,-1.007155 -0.13281,-1.490348 l 0.008,0.08423 c 0.003,-1.024313 0.0491,-2.062147 0.15348,-3.094384 0.10438,-1.03224 0.26698,-2.05917 0.50281,-3.062346 0.11791,-0.501588 0.25395,-0.997278 0.41031,-1.484664 0.15636,-0.487386 0.3327,-0.966493 0.53123,-1.435054 0.19854,-0.468562 0.41909,-0.926381 0.66353,-1.371493 0.24443,-0.445112 0.51312,-0.877455 0.80718,-1.294494 0.31093,-0.321016 0.64815,-0.594981 1.00718,-0.826307 0.35903,-0.231325 0.73958,-0.420144 1.1374,-0.569474 0.39781,-0.14933 0.81295,-0.259317 1.24023,-0.334346 0.42728,-0.07503 0.8667,-0.115084 1.31413,-0.123507 z"
       style="color:#000000;font-style:normal;font-variant:normal;font-weight:normal;font-stretch:normal;font-size:medium;line-height:normal;font-family:sans-serif;font-variant-ligatures:normal;font-variant-position:normal;font-variant-caps:normal;font-variant-numeric:normal;font-variant-alternates:normal;font-feature-settings:normal;text-indent:0;text-align:start;text-decoration:none;text-decoration-line:none;text-decoration-style:solid;text-decoration-color:#000000;letter-spacing:normal;word-spacing:normal;text-transform:none;writing-mode:lr-tb;direction:ltr;text-orientation:mixed;dominant-baseline:auto;baseline-shift:baseline;text-anchor:start;white-space:normal;shape-padding:0;clip-rule:nonzero;display:inline;overflow:visible;visibility:visible;opacity:1;isolation:auto;mix-blend-mode:normal;color-interpolation:sRGB;color-interpolation-filters:linearRGB;solid-color:#000000;solid-opacity:1;vector-effect:none;fill:#000000;fill-opacity:1;fill-rule:evenodd;stroke:none;stroke-width:1;stroke-linecap:butt;stroke-linejoin:miter;stroke-miterlimit:4;stroke-dasharray:none;stroke-dashoffset:0;stroke-opacity:1;color-rendering:auto;image-rendering:auto;shape-rendering:auto;text-rendering:auto;enable-background:accumulate" />
  </g>
  <g
     style="display:none"
     id="layer6">
    <path
       id="path4701"
       d="m 223.2303,17.378785 c -1.99105,0.03748 -3.96486,0.652539 -5.42758,2.179712 l -0.0253,0.02739 -0.0217,0.02946 c -2.55297,3.595369 -3.26183,8.134352 -3.27318,12.357385 v 0.04289 l 0.006,0.04082 c 0.29259,1.75252 0.11923,3.547295 -1.21077,4.672068 -7.22996,4.427524 -14.03601,10.319731 -17.74414,18.1777 l -0.0233,0.04909 -0.0119,0.05064 c -0.59925,2.561916 -2.39414,4.55462 -4.78524,5.672014 l -1.68931,0.789101 1.85725,0.161745 c 0.97061,0.0844 1.94188,0.169849 2.91249,0.254249 l 0.0584,0.0036 0.0584,-0.0078 c 0.50227,-0.07516 0.61998,0.01881 0.60358,-0.0098 -0.009,0.04168 -0.0188,0.09417 -0.0641,0.181901 -0.22856,0.442061 -0.98711,1.157076 -1.46916,1.380794 l -1.53118,0.709002 11.24996,1.607134 v 2.634983 l 10.59419,-0.605647 h 0.0155 c 1.82156,-0.207989 3.64582,-0.0994 5.48442,0.167947 l 0.12299,0.01757 0.11679,-0.04083 c 3.58825,-1.275747 6.55027,-3.883125 9.1488,-6.486424 l 0.008,-0.0057 0.006,-0.0083 c 3.86144,-4.1691 7.61058,-9.357392 7.71477,-15.414045 v -0.02894 l -0.002,-0.02945 c -0.44815,-4.359917 -1.6121,-9.491622 -5.72834,-12.11709 l 0.0429,0.02946 c -0.41412,-0.329346 -0.5844,-0.592119 -0.60926,-0.672312 -0.0249,-0.08019 -0.0571,0.0043 0.0506,-0.07803 0.21537,-0.164624 1.12429,-0.393279 2.21485,-0.458885 2.18111,-0.131218 5.17157,0.122348 6.32829,0.248047 l 0.52504,0.05684 0.0274,-0.527616 c 0.15144,-2.84856 -0.76346,-6.938437 -3.36106,-8.890321 v -0.0021 c -3.65837,-2.738048 -4.98485,-3.994674 -6.4022,-4.865343 l -0.0258,-0.0155 -0.0269,-0.01395 c -1.69393,-0.776918 -3.72179,-1.300969 -5.71283,-1.263489 z m 0.0196,0.999939 c 0.4474,-0.0084 0.90081,0.01559 1.35392,0.06718 0.45311,0.05159 0.90612,0.130831 1.35186,0.233577 0.44573,0.102747 0.8842,0.229091 1.30948,0.374138 0.42527,0.145047 0.83715,0.308818 1.22886,0.487309 0.63966,0.39445 1.29864,0.907202 2.25619,1.664497 0.95756,0.757296 2.21351,1.759385 4.04834,3.132626 0.2507,0.188382 0.48432,0.407552 0.70073,0.652156 0.21641,0.244605 0.41602,0.51467 0.59893,0.804086 0.36582,0.578831 0.66513,1.235857 0.90175,1.925464 0.23663,0.689605 0.41018,1.411713 0.524,2.120799 0.11382,0.709089 0.16796,1.40498 0.16537,2.042253 -0.6859,-0.0678 -1.63169,-0.156512 -2.66702,-0.212389 -1.03533,-0.05588 -2.16007,-0.07882 -3.20394,-0.01601 -0.5775,0.03474 -1.10692,0.0778 -1.57252,0.173633 -0.2328,0.04792 -0.44969,0.10873 -0.64854,0.188618 -0.19884,0.07989 -0.37961,0.178793 -0.54053,0.301792 -0.16092,0.122997 -0.29407,0.307896 -0.37001,0.515731 -0.0759,0.207836 -0.0946,0.438529 -0.0284,0.652156 0.0662,0.213627 0.17888,0.40582 0.33642,0.593246 0.15754,0.187423 0.35957,0.369946 0.60461,0.564822 l 0.0217,0.01757 0.0217,0.01394 c 0.45929,0.292954 0.87906,0.623207 1.26297,0.985469 0.38392,0.362265 0.73185,0.756383 1.04748,1.176674 0.31564,0.420291 0.59873,0.866733 0.85318,1.333767 0.25446,0.467037 0.4802,0.954778 0.68058,1.457278 0.20038,0.502496 0.37524,1.019995 0.52865,1.546674 0.15341,0.52668 0.28541,1.062392 0.39894,1.60197 0.22708,1.079153 0.38123,2.172927 0.49144,3.235978 -0.0133,0.70489 -0.0799,1.3995 -0.1943,2.083594 -0.1144,0.684093 -0.27645,1.357688 -0.47955,2.02003 -0.20311,0.662342 -0.44722,1.31373 -0.72657,1.953369 -0.27936,0.63964 -0.59373,1.267624 -0.9369,1.883608 -0.34317,0.615982 -0.71548,1.219883 -1.11001,1.811258 -0.39453,0.591376 -0.81144,1.169996 -1.24488,1.73581 -0.86689,1.131631 -1.79925,2.211273 -2.74712,3.234946 -0.002,0.0021 -0.004,0.0037 -0.006,0.0057 -0.63671,0.637548 -1.29233,1.269831 -1.96939,1.877922 -0.67706,0.608092 -1.37555,1.191938 -2.09806,1.733744 -0.72251,0.541808 -1.46918,1.041323 -2.24224,1.480013 -0.77307,0.438689 -1.57269,0.816954 -2.40141,1.115695 -0.9165,-0.128101 -1.83709,-0.223216 -2.76262,-0.259416 -0.92553,-0.0362 -1.85601,-0.01386 -2.79208,0.09302 l -9.49606,0.54312 v -2.445338 l -9.44335,-1.349272 c 0.1955,-0.170929 0.41124,-0.321117 0.60565,-0.481108 0.19441,-0.159991 0.36758,-0.329946 0.47646,-0.540536 0.0975,-0.188494 0.17092,-0.384974 0.18913,-0.607713 0.009,-0.111371 -5.2e-4,-0.234463 -0.0346,-0.355018 -0.0341,-0.120555 -0.0927,-0.238194 -0.18035,-0.337963 -0.0876,-0.09977 -0.18596,-0.175921 -0.29507,-0.232545 -0.10912,-0.05662 -0.22886,-0.09383 -0.35864,-0.115239 -0.22949,-0.03785 -0.50216,-0.01365 -0.79271,0.02429 0.004,2.64e-4 0.009,5.29e-4 0.0129,0.0011 l -0.11679,0.0021 c 0.0391,-0.0058 0.0658,0.0019 0.10387,-0.0031 -0.53799,-0.04679 -1.07587,-0.09481 -1.61386,-0.141594 0.50438,-0.324125 0.9852,-0.680077 1.43144,-1.069184 0.44624,-0.389107 0.85794,-0.811533 1.22422,-1.268656 0.36627,-0.457123 0.68687,-0.948738 0.95136,-1.476912 0.26449,-0.528177 0.47304,-1.092724 0.61392,-1.694987 0.22629,-0.443626 1.06977,-2.037144 1.45258,-2.674778 0.54065,-0.896752 1.12422,-1.76566 1.74563,-2.607593 0.62141,-0.841933 1.28092,-1.657143 1.97301,-2.445845 0.69208,-0.788702 1.41671,-1.551176 2.16937,-2.288233 0.75266,-0.737058 1.53315,-1.448268 2.33629,-2.135269 0.80315,-0.687001 1.62918,-1.349457 2.47272,-1.987992 0.84355,-0.638535 1.70481,-1.253193 2.57865,-1.844849 0.87385,-0.591654 1.76005,-1.160508 2.65411,-1.706873 l 0.0331,-0.01963 0.0295,-0.02326 c 0.21287,-0.179261 0.40178,-0.371266 0.56895,-0.573609 0.16717,-0.20234 0.31274,-0.415084 0.43822,-0.636135 0.25097,-0.442106 0.42241,-0.917443 0.53072,-1.408184 0.10831,-0.490741 0.15364,-0.996762 0.15141,-1.501201 -0.002,-0.504439 -0.0521,-1.007155 -0.13281,-1.490348 l 0.008,0.08423 c 0.003,-1.024313 0.0491,-2.062147 0.15348,-3.094384 0.10438,-1.03224 0.26698,-2.05917 0.50281,-3.062346 0.11791,-0.501588 0.25395,-0.997278 0.41031,-1.484664 0.15636,-0.487386 0.3327,-0.966493 0.53123,-1.435054 0.19854,-0.468562 0.41909,-0.926381 0.66353,-1.371493 0.24443,-0.445112 0.51312,-0.877455 0.80718,-1.294494 0.31093,-0.321016 0.64815,-0.594981 1.00718,-0.826307 0.35903,-0.231325 0.73958,-0.420144 1.1374,-0.569474 0.39781,-0.14933 0.81295,-0.259317 1.24023,-0.334346 0.42728,-0.07503 0.8667,-0.115084 1.31413,-0.123507 z"
       style="color:#000000;font-style:normal;font-variant:normal;font-weight:normal;font-stretch:normal;font-size:medium;line-height:normal;font-family:sans-serif;font-variant-ligatures:normal;font-variant-position:normal;font-variant-caps:normal;font-variant-numeric:normal;font-variant-alternates:normal;font-feature-settings:normal;text-indent:0;text-align:start;text-decoration:none;text-decoration-line:none;text-decoration-style:solid;text-decoration-color:#000000;letter-spacing:normal;word-spacing:normal;text-transform:none;writing-mode:lr-tb;direction:ltr;text-orientation:mixed;dominant-baseline:auto;baseline-shift:baseline;text-anchor:start;white-space:normal;shape-padding:0;clip-rule:nonzero;display:inline;overflow:visible;visibility:visible;opacity:1;isolation:auto;mix-blend-mode:normal;color-interpolation:sRGB;color-interpolation-filters:linearRGB;solid-color:#000000;solid-opacity:1;vector-effect:none;fill:#ffffff;fill-opacity:1;fill-rule:evenodd;stroke:none;stroke-width:1;stroke-linecap:butt;stroke-linejoin:miter;stroke-miterlimit:4;stroke-dasharray:none;stroke-dashoffset:0;stroke-opacity:1;color-rendering:auto;image-rendering:auto;shape-rendering:auto;text-rendering:auto;enable-background:accumulate" />
  </g>
  <g
     style="display:none"
     id="g5032">
    <path
       id="path4620"
       d="m 101.60052,23.15931 c 0,0 -51.881994,12.587557 -77.204077,18.731156 V 164.94135 l 59.156079,23.40064 v -0.003 l 18.046958,7.13952 18.04696,-7.1391 v 0.003 l 57.15052,-22.60741 40.10556,-15.8657 v -5.3e-4 L 260.00377,132.8186 V 72.416252 l -32.4063,-4.631243 v 0.0047 l -12.69689,-1.814875 -10.70116,1.07125 v -2.598806 c -8.39128,-1.196644 -17.76353,-2.542344 -25.3969,-3.631811 V 41.890466 C 124.84417,28.813837 101.60052,23.15931 101.60052,23.15931 Z m -1.00304,2.307353 V 49.92977 l -57.150003,8.163843 v 93.423757 l 21.056595,6.21719 V 111.7756 l 17.042887,1.62265 v 71.9925 L 26.402522,163.57606 V 43.468666 Z m 2.00608,0 74.1934,18.002003 v 17.060455 1.15652 101.890419 l -55.14444,21.81469 V 89.902522 h 38.10155 V 58.093613 L 102.60356,49.92977 Z m -0.25374,26.453165 55.3961,7.914246 v 19.039149 l -38.09534,-1.63091 v 10.65413 h -0.004 v 98.292707 l -17.29662,6.84041 z m -1.50016,5.29e-4 V 193.02957 l -17.297138,-6.84144 v -74.61406 c -0.0031,-11.44043 -0.0016,-22.888528 -0.0016,-34.331757 l -38.097919,1.632461 v -19.0407 z m 77.95286,10.923363 10.6934,1.527556 v 78.363174 l 25.40052,-7.49825 v 13.26947 l -36.09392,14.27769 z m 12.70155,1.809191 10.69495,1.528591 v 56.166078 l 14.70143,-2.86907 V 68.283169 l 10.69702,1.52704 v 59.584481 l -10.69495,3.15588 -1.74511,0.51521 -0.26097,0.077 -23.39237,6.90604 z m 23.39651,3.283522 v 49.887907 l -10.70116,-0.83612 V 68.548271 Z m 14.70297,2.163175 28.39465,4.0566 v 57.298832 l -41.09568,16.25585 v -13.06845 l 11.98221,-3.53674 0.71882,-0.21135 v -0.002 l 18.82469,-5.55729 v -2.08514 c -0.0316,0.008 -0.0615,0.0106 -0.0941,0.0212 L 229.6035,128.8005 Z M 81.550578,79.330053 v 29.048867 l -19.054651,1.1896 v 36.7316 l -17.042887,3.2582 V 80.877233 Z m 40.099882,0 36.09546,1.545124 v 7.021277 h -36.09546 z m 118.90023,3.339846 v 31.935511 l 7.84965,-1.53324 V 83.005787 l -0.71882,-0.03101 z m 1.50017,1.564245 4.84931,0.209291 v 27.218485 l -4.84931,-0.27699 z m -82.29679,23.517946 -21.0566,2.00556 v 0.91209 47.06483 l 21.0566,-6.21719 z m -2.00815,2.20865 v 39.87301 l -17.04288,-2.92127 V 111.58389 Z M 81.550578,110.385 v 0.99839 l -5.988782,-0.57051 z m 122.648842,8.10752 5.21622,0.40876 -5.21622,1.01854 z M 62.495927,148.3372 v 6.71173 l -13.804842,-4.0752 z m 78.207113,0.0966 14.17639,2.42982 -14.17639,4.18527 z"
       style="color:#000000;font-style:normal;font-variant:normal;font-weight:normal;font-stretch:normal;font-size:medium;line-height:normal;font-family:sans-serif;font-variant-ligatures:normal;font-variant-position:normal;font-variant-caps:normal;font-variant-numeric:normal;font-variant-alternates:normal;font-feature-settings:normal;text-indent:0;text-align:start;text-decoration:none;text-decoration-line:none;text-decoration-style:solid;text-decoration-color:#000000;letter-spacing:normal;word-spacing:normal;text-transform:none;writing-mode:lr-tb;direction:ltr;text-orientation:mixed;dominant-baseline:auto;baseline-shift:baseline;text-anchor:start;white-space:normal;shape-padding:0;clip-rule:nonzero;display:inline;overflow:visible;visibility:visible;opacity:1;isolation:auto;mix-blend-mode:normal;color-interpolation:sRGB;color-interpolation-filters:linearRGB;solid-color:#000000;solid-opacity:1;vector-effect:none;fill:#ffffff;fill-opacity:1;fill-rule:evenodd;stroke:none;stroke-width:2.0065999;stroke-linecap:round;stroke-linejoin:miter;stroke-miterlimit:4;stroke-dasharray:none;stroke-dashoffset:0;stroke-opacity:1;color-rendering:auto;image-rendering:auto;shape-rendering:auto;text-rendering:auto;enable-background:accumulate" />
  </g>
</svg>
